HIERARCHY
ROOT Hips
{
	OFFSET 0.00000 0.00000 0.00000
	CHANNELS 6 Xposition Yposition Zposition Zrotation Yrotation Xrotation 
	JOINT LHipJoint
	{
		OFFSET 0 0 0
		CHANNELS 3 Zrotation Yrotation Xrotation
		JOINT LeftHip
		{
			OFFSET 1.62329 -1.80800 0.67318
			CHANNELS 3 Zrotation Yrotation Xrotation
			JOINT LeftKnee
			{
				OFFSET 2.57139 -7.06484 0.00000
				CHANNELS 3 Zrotation Yrotation Xrotation
				JOINT LeftAnkle
				{
					OFFSET 2.52017 -6.92413 0.00000
					CHANNELS 3 Zrotation Yrotation Xrotation
					JOINT LeftToe
					{
						OFFSET 0.23295 -0.64001 2.10214
						CHANNELS 3 Zrotation Yrotation Xrotation
						End Site
						{
							OFFSET 0.00000 -0.00000 1.10139
						}
					}
				}
			}
		}
	}
	JOINT RHipJoint
	{
		OFFSET 0 0 0
		CHANNELS 3 Zrotation Yrotation Xrotation
		JOINT RightHip
		{
			OFFSET -1.48061 -1.80800 0.67318
			CHANNELS 3 Zrotation Yrotation Xrotation
			JOINT RightKnee
			{
				OFFSET -2.63258 -7.23296 0.00000
				CHANNELS 3 Zrotation Yrotation Xrotation
				JOINT RightAnkle
				{
					OFFSET -2.54779 -7.00000 0.00000
					CHANNELS 3 Zrotation Yrotation Xrotation
					JOINT RightToe
					{
						OFFSET -0.23067 -0.63376 2.12161
						CHANNELS 3 Zrotation Yrotation Xrotation
						End Site
						{
							OFFSET -0.00000 -0.00000 1.11000
						}
					}
				}
			}
		}
	}
	JOINT lowerback
	{
		OFFSET 0 0 0
		CHANNELS 3 Zrotation Yrotation Xrotation
		JOINT Chest
		{
			OFFSET -0.02108 2.07573 -0.16981
			CHANNELS 3 Zrotation Yrotation Xrotation
			JOINT Chest2
			{
				OFFSET 0.05070 2.08439 -0.03141
				CHANNELS 3 Zrotation Yrotation Xrotation
				JOINT lowerneck
				{
					OFFSET 0 0 0
					CHANNELS 3 Zrotation Yrotation Xrotation
					JOINT Neck
					{
						OFFSET -0.10731 1.60408 0.31370
						CHANNELS 3 Zrotation Yrotation Xrotation
						JOINT Head
						{
							OFFSET 0.08411 1.65679 -0.30822
							CHANNELS 3 Zrotation Yrotation Xrotation
							End Site
							{
								OFFSET 0.03911 1.69149 -0.14146
							}
						}
					}
				}
				JOINT LeftCollar
				{
					OFFSET 0 0 0
					CHANNELS 3 Zrotation Yrotation Xrotation
					JOINT LeftShoulder
					{
						OFFSET 3.52315 0.73219 -0.54694
CHANNELS 3 Zrotation Xrotation Yrotation
						JOINT LeftElbow
						{
OFFSET 0 -5.324620 -0.000000
CHANNELS 3 Zrotation Xrotation Yrotation
							JOINT LeftWrist
							{
OFFSET 0 -3.484020 -0.000000
CHANNELS 3 Zrotation Xrotation Yrotation
								JOINT lhand
								{
									OFFSET 0 0 0
CHANNELS 3 Zrotation Xrotation Yrotation
									JOINT LFingers
									{
OFFSET 0 -0.572480 -0.000000
CHANNELS 3 Zrotation Xrotation Yrotation
										End Site
										{
OFFSET 0 -0.461540 -0.000000
										}
									}
								}
								JOINT LThumb
								{
OFFSET 0 0.000000 0.000000
CHANNELS 3 Zrotation Xrotation Yrotation
									End Site
									{
OFFSET 0 -0.468590 0.468590
									}
								}
							}
						}
					}
				}
				JOINT RightCollar
				{
					OFFSET 0 0 0
					CHANNELS 3 Zrotation Yrotation Xrotation
					JOINT RightShoulder
					{
						OFFSET -3.41766 0.93592 -0.10019
CHANNELS 3 Zrotation Xrotation Yrotation
						JOINT RightElbow
						{
OFFSET 0 -5.335890 -0.000000
CHANNELS 3 Zrotation Xrotation Yrotation
							JOINT RightWrist
							{
OFFSET 0 -3.641340 -0.000000
CHANNELS 3 Zrotation Xrotation Yrotation
								JOINT rhand
								{
									OFFSET 0 0 0
CHANNELS 3 Zrotation Xrotation Yrotation
									JOINT RFingers
									{
OFFSET 0 -0.734810 -0.000000
CHANNELS 3 Zrotation Xrotation Yrotation
										End Site
										{
OFFSET 0 -0.592420 -0.000000
										}
									}
								}
								JOINT RThumb
								{
OFFSET 0 0.000000 0.000000
CHANNELS 3 Zrotation Xrotation Yrotation
									End Site
									{
OFFSET 0 -0.601470 0.601470
									}
								}
							}
						}
					}
				}
			}
		}
	}
}
MOTION
Frames: 7
Frame Time: .0083333
-9.4979 17.6507 3.0501 -13.2392 91.0492 -5.2770 0.0000 0.0000 0.0000 -21.8635 -0.8388 -12.3216 1.9763 8.8165 25.2230 1.1739 -1.8026 -19.9635 0.3518 -3.8107 -10.5446 0.0000 0.0000 0.0000 23.9185 -7.4665 -34.4915 -4.2690 -12.5101 37.5611 -1.9148 -14.4536 -34.6676 -1.3424 -7.3356 20.7135 -2.4687 0.2257 5.2622 3.5462 0.2944 0.0902 5.0461 0.2217 -2.8921 -5.4282 1.0229 -15.9727 -3.9611 6.5614 36.6056 0.5689 1.9488 15.6685 0.0000 0.0000 0.0000 3.2392 -1.7726 -26.0012 23.0207 -34.1115 7.1499 14.2279 13.4615 -22.5558 0.0 0.0 0.0 -7.1250 0.0 0.0 -15.1356 52.5408 2.8621 0.0000 0.0000 0.0000 -9.0875 1.9942 10.6886 -18.1697 -28.3739 -4.6296 -22.913 20.5798 -5.2184 0.0 0.0 0.0 7.1250 0.0 -0.0 2.8113 24.3177 1.4058
-9.5384 17.6420 3.0433 -26.6757 91.6166 -18.7571 0.0000 0.0000 0.0000 -22.3377 -0.6726 -12.5412 1.9786 8.8214 25.2383 1.1598 -2.4806 -19.6842 0.3513 -3.8079 -10.5368 0.0000 0.0000 0.0000 23.3689 -7.8164 -34.9817 -4.3818 -12.6518 38.0787 -1.9150 -14.3740 -34.6045 -1.3351 -7.3165 20.6563 -3.2641 0.2778 5.3691 3.4020 0.3032 0.1456 5.3490 0.2330 -2.8994 -5.7189 0.9526 -15.9112 -3.7332 6.4775 36.6433 0.7011 1.9092 15.6519 0.0000 -0.0000 0.0000 3.3579 -1.8246 -25.7114 23.1896 -34.2955 7.2448 14.285 13.3058 -22.4803 0.0 0.0 0.0 -7.1250 0.0 0.0 -15.0455 52.4769 2.8206 0.0000 -0.0000 0.0000 -8.9435 1.6858 10.9969 -18.1356 -28.3304 -4.6134 -23.2027 20.7484 -5.0176 0.0 0.0 0.0 7.1250 0.0 -0.0 2.5939 24.5235 1.2845
-9.5757 17.6280 3.0268 -41.8953 92.3186 -33.8713 0.0000 0.0000 0.0000 -23.2802 -0.8544 -12.7292 1.9715 8.8065 25.1920 1.1426 -2.6711 -19.4931 0.3606 -3.8578 -10.6770 0.0000 0.0000 0.0000 22.3983 -8.0645 -35.5939 -4.4933 -12.7894 38.5851 -1.9161 -14.2688 -34.5263 -1.3130 -7.2581 20.4823 -4.4124 0.4094 5.2227 3.2662 0.4021 0.2168 5.8559 0.2891 -2.7627 -6.1931 0.8211 -15.7920 -3.5159 6.3619 36.6482 0.8542 1.8344 15.6041 -0.0000 0.0000 0.0000 3.2201 -1.9621 -25.5793 23.2722 -34.3852 7.2915 14.9085 13.4619 -22.6544 0.0 0.0 0.0 -7.1250 0.0 0.0 -14.5126 52.7568 2.8177 -0.0000 0.0000 0.0000 -9.151 1.3645 11.5 -18.1394 -28.3352 -4.6152 -23.4343 20.2532 -5.0355 0.0 0.0 0.0 7.1250 0.0 -0.0 2.4210 24.4946 1.2004
-9.6060 17.6226 3.0086 -41.8638 92.8727 -33.7576 0.0000 0.0000 0.0000 -23.7351 -1.2236 -12.8399 1.9723 8.8081 25.1968 1.1255 -2.6072 -19.3539 0.4096 -4.1084 -11.3819 0.0000 0.0000 0.0000 21.9515 -8.4304 -36.1153 -4.5845 -12.9000 38.9953 -1.8879 -14.2811 -34.3786 -1.2899 -7.1965 20.2988 -4.9387 0.4327 4.9353 3.1778 0.4085 0.3649 6.0632 0.2838 -2.4517 -6.6241 0.7416 -15.7027 -3.2727 6.2870 36.6048 1.0169 1.7842 15.5387 0.0000 -0.0000 0.0000 3.2014 -2.1489 -25.3561 23.3551 -34.4748 7.3383 15.5619 13.4178 -22.7258 0.0 0.0 0.0 -7.1250 0.0 0.0 -13.9007 52.9429 2.759 0.0000 -0.0000 0.0000 -9.2186 0.9632 12.204 -18.2041 -28.4178 -4.646 -23.721 20.039 -4.6417 0.0 0.0 0.0 7.1250 0.0 -0.0 2.2033 24.9119 1.071
-9.6312 17.6215 2.9944 -31.7956 93.2322 -23.7947 0.0000 0.0000 0.0000 -23.5166 -1.3401 -12.8977 1.9883 8.8417 25.3015 1.1097 -2.7664 -19.1811 0.4477 -4.2930 -11.9025 0.0000 0.0000 0.0000 22.1536 -8.8804 -36.3033 -4.6403 -12.9669 39.2446 -1.8806 -14.3270 -34.3746 -1.2797 -7.1689 20.2166 -4.6885 0.3634 4.8664 3.1119 0.3318 0.4970 5.8545 0.2337 -2.2631 -6.8250 0.7343 -15.5636 -3.0517 6.2479 36.5724 1.1352 1.7780 15.4718 0.0000 0.0000 0.0000 3.4694 -2.2388 -24.9465 23.4104 -34.5345 7.3696 15.6623 12.9138 -22.5214 0.0 0.0 0.0 -7.1250 0.0 0.0 -13.7112 52.7587 2.6579 0.0000 0.0000 0.0000 -8.9903 0.6783 13.0304 -18.3120 -28.5548 -4.6974 -24.0571 20.0301 -4.0967 0.0 0.0 0.0 7.1250 0.0 -0.0 1.9467 25.4945 0.9197
-9.6573 17.6215 2.9778 -23.5904 93.6394 -15.7368 0.0000 0.0000 0.0000 -23.2801 -1.4125 -12.9623 2.0156 8.8985 25.4783 1.1036 -2.9688 -19.0887 0.4450 -4.2799 -11.8655 0.0000 0.0000 0.0000 22.3632 -9.2457 -36.3684 -4.6698 -13.0020 39.3760 -1.8436 -14.4949 -34.3028 -1.2421 -7.0669 19.9138 -4.2638 0.3862 4.9194 2.9544 0.3797 0.5803 5.4415 0.2495 -2.2092 -6.8370 0.6718 -15.4675 -2.8605 6.1142 36.7086 1.1964 1.7497 15.5062 0.0000 -0.0000 0.0000 3.8517 -2.3207 -24.6716 23.4119 -34.5362 7.3705 15.7663 12.6738 -22.6469 0.0 0.0 0.0 -7.1250 0.0 0.0 -13.6637 52.9012 2.6965 0.0000 -0.0000 0.0000 -8.561 0.5583 13.4665 -18.4695 -28.7542 -4.773 -24.2201 19.8085 -4.1259 0.0 0.0 0.0 7.1250 0.0 -0.0 1.8240 25.4569 0.8633
-9.6862 17.6226 2.9616 -19.4911 94.0427 -11.8081 0.0000 0.0000 0.0000 -23.2063 -1.6867 -12.9202 2.0444 8.9579 25.6638 1.1046 -3.1330 -19.0685 0.3674 -3.8935 -10.7774 0.0000 0.0000 0.0000 22.3512 -9.3455 -36.3070 -4.6873 -13.0228 39.4537 -1.7855 -14.8857 -34.2978 -1.1810 -6.8972 19.4112 -3.9334 0.5599 5.0395 2.6435 0.6161 0.6719 4.9095 0.3605 -2.2045 -6.5341 0.4879 -15.3935 -2.7240 5.7218 36.8897 1.1373 1.6466 15.5822 -0.0000 0.0000 0.0000 4.4366 -2.417 -24.7346 23.4479 -34.5749 7.3909 16.2745 12.7137 -22.9832 0.0 0.0 0.0 -7.1250 0.0 0.0 -13.3086 53.3256 2.7638 -0.0000 0.0000 0.0000 -7.9084 0.4903 13.5055 -18.6831 -29.023 -4.8761 -24.3395 19.5674 -4.3293 0.0 0.0 0.0 7.1250 0.0 -0.0 1.7358 25.2298 0.8307
